<?xml version="1.0" standalone="no"?><!DOCTYPE svg PUBLIC "-//W3C//DTD SVG 1.1//EN" "http://www.w3.org/Graphics/SVG/1.1/DTD/svg11.dtd"><svg class="icon" width="200px" height="200.00px" viewBox="0 0 1024 1024" version="1.1" xmlns="http://www.w3.org/2000/svg"><path d="M512 512m-512 0a512 512 0 1 0 1024 0 512 512 0 1 0-1024 0Z" fill="#FF8564" /><path d="M665.6 534.4V416c0-86.4-54.4-124.8-124.8-131.2 3.2-16-9.6-28.8-25.6-28.8s-28.8 12.8-28.8 28.8c-70.4 6.4-124.8 48-124.8 131.2v118.4c0 96-243.2 144 147.2 144 393.6 0 156.8-48 156.8-144z m-150.4 220.8c28.8 0 51.2-22.4 51.2-51.2h-105.6c0 28.8 25.6 51.2 54.4 51.2z" fill="#FFFFFF" /></svg>